<svg width="22" height="22" viewBox="0 0 22 22" fill="none" xmlns="http://www.w3.org/2000/svg">
<path d="M19.2383 16.9625C19.1958 16.8942 19.1403 16.8349 19.075 16.7881C19.0096 16.7412 18.9356 16.7078 18.8572 16.6896C18.7789 16.6715 18.6977 16.6689 18.6184 16.6822C18.5391 16.6955 18.4631 16.7243 18.395 16.7669C17.4644 17.3463 16.4157 17.7097 15.3262 17.8303C14.2367 17.951 13.1339 17.8258 12.0991 17.4641C11.0644 17.1023 10.1238 16.5132 9.34674 15.74C8.56966 14.9669 7.9758 14.0293 7.60884 12.9964H14.765C14.927 12.9964 15.0825 12.932 15.1971 12.8174C15.3117 12.7028 15.3761 12.5473 15.3761 12.3853C15.3761 12.2232 15.3117 12.0677 15.1971 11.9531C15.0825 11.8385 14.927 11.7741 14.765 11.7741H7.29107C7.14385 10.966 7.14385 10.1379 7.29107 9.3297H14.765C14.927 9.3297 15.0825 9.26532 15.1971 9.15071C15.3117 9.03611 15.3761 8.88067 15.3761 8.71859C15.3761 8.55652 15.3117 8.40108 15.1971 8.28647C15.0825 8.17187 14.927 8.10748 14.765 8.10748H7.60884C7.97464 7.07654 8.56645 6.1405 9.34091 5.36793C10.1154 4.59536 11.0529 4.00584 12.0847 3.64256C13.1165 3.27928 14.2165 3.15145 15.3042 3.26842C16.3918 3.3854 17.4395 3.74422 18.3705 4.31859C18.5083 4.40449 18.6745 4.43215 18.8327 4.39548C18.9908 4.3588 19.1279 4.2608 19.2138 4.12304C19.2997 3.98527 19.3274 3.81903 19.2907 3.66087C19.2541 3.50271 19.1561 3.36561 19.0183 3.2797C17.901 2.58853 16.6396 2.16395 15.3318 2.03887C14.024 1.91378 12.705 2.09156 11.4769 2.55842C10.2489 3.02528 9.14491 3.76868 8.2505 4.73099C7.3561 5.69329 6.69532 6.84864 6.3194 8.10748H2.16385C2.00177 8.10748 1.84633 8.17187 1.73172 8.28647C1.61712 8.40108 1.55273 8.55652 1.55273 8.71859C1.55273 8.88067 1.61712 9.03611 1.73172 9.15071C1.84633 9.26532 2.00177 9.3297 2.16385 9.3297H6.05662C5.99484 9.73425 5.96216 10.1427 5.95885 10.5519C5.96216 10.9611 5.99484 11.3696 6.05662 11.7741H2.16385C2.00177 11.7741 1.84633 11.8385 1.73172 11.9531C1.61712 12.0677 1.55273 12.2232 1.55273 12.3853C1.55273 12.5473 1.61712 12.7028 1.73172 12.8174C1.84633 12.932 2.00177 12.9964 2.16385 12.9964H6.3194C6.69611 14.2582 7.35901 15.416 8.25647 16.3797C9.15392 17.3433 10.2617 18.0868 11.4936 18.5522C12.7254 19.0176 14.0481 19.1924 15.3585 19.063C16.669 18.9335 17.9319 18.5033 19.0488 17.8058C19.1167 17.7629 19.1754 17.707 19.2216 17.6414C19.2678 17.5758 19.3007 17.5017 19.3183 17.4234C19.3358 17.3451 19.3378 17.2641 19.3241 17.185C19.3104 17.1059 19.2812 17.0303 19.2383 16.9625Z" fill="black"/>
</svg>
