<svg width="22" height="22" viewBox="0 0 22 22" fill="none" xmlns="http://www.w3.org/2000/svg">
<path d="M17.4633 12.0937H8.71667C9.34138 11.8098 10.0182 11.5961 10.717 11.3783C11.9814 10.9843 13.2826 10.5761 14.3411 9.68637H17.4633C17.7165 9.68637 17.9216 9.48119 17.9216 9.22804C17.9216 8.97488 17.7165 8.7697 17.4633 8.7697H15.1646C15.7073 7.91968 15.8413 6.87715 15.5129 5.8131C15.0273 4.23972 13.6387 2.92452 12.1359 2.61479C10.7407 2.3269 9.18501 2.64129 7.97651 3.45519C6.91948 4.16703 6.21891 5.20186 6.00353 6.36954C5.9577 6.6184 6.12223 6.85759 6.37127 6.90343C6.61978 6.94783 6.85915 6.7849 6.90516 6.53569C7.07524 5.61257 7.6376 4.78865 8.48856 4.21573C9.49689 3.53647 10.7901 3.27221 11.9511 3.51284C13.141 3.75776 14.2457 4.81515 14.637 6.08344C14.8139 6.65636 14.9768 7.75528 14.0827 8.67911C14.0513 8.71161 14.0164 8.73846 13.9842 8.7697H4.53597C4.28281 8.7697 4.07764 8.97488 4.07764 9.22804C4.07764 9.48119 4.28281 9.68637 4.53597 9.68637H12.6532C11.9726 10.0221 11.222 10.2607 10.4444 10.5031C9.22975 10.8818 7.97969 11.274 6.93998 12.0937H4.53597C4.28281 12.0937 4.07764 12.2989 4.07764 12.552C4.07764 12.8052 4.28281 13.0104 4.53597 13.0104H6.07403C5.34472 14.1401 5.32463 15.7017 6.08481 17.0509C7.06862 18.7965 8.97912 19.4879 10.8125 19.4879C11.4498 19.4879 12.0779 19.4045 12.6544 19.2526C15.0692 18.6163 16.5667 16.9252 16.5627 14.8394C16.5624 14.5862 16.3572 14.3818 16.1044 14.3818C16.1041 14.3818 16.1037 14.3818 16.1037 14.3818C15.8505 14.3821 15.6457 14.588 15.6461 14.8408C15.65 16.8127 13.9825 17.9546 12.4209 18.3661C10.4551 18.8835 7.92191 18.4438 6.88332 16.6011C6.3147 15.5917 6.16592 14.0627 7.1832 13.0916C7.21366 13.0626 7.24703 13.0384 7.27811 13.0104H17.4633C17.7165 13.0104 17.9216 12.8052 17.9216 12.552C17.9216 12.2989 17.7165 12.0937 17.4633 12.0937Z" fill="#1D1C1A"/>
</svg>
