<svg width="25" height="25" viewBox="0 0 25 25" fill="none" xmlns="http://www.w3.org/2000/svg">
<path d="M11.5 20C6.79231 20 3 16.2077 3 11.5C3 6.79231 6.79231 3 11.5 3C16.2077 3 20 6.79231 20 11.5C20 16.2077 16.2077 20 11.5 20ZM11.5 4.30769C7.51154 4.30769 4.30769 7.51154 4.30769 11.5C4.30769 15.4885 7.51154 18.6923 11.5 18.6923C15.4885 18.6923 18.6923 15.4885 18.6923 11.5C18.6923 7.51154 15.4885 4.30769 11.5 4.30769Z" fill="black"/>
<path d="M16.9523 16L23 22.0477L22.0477 23L16 16.9523L16.9523 16Z" fill="black"/>
</svg>
